<svg width="536" height="482" viewBox="0 0 536 482" fill="none" xmlns="http://www.w3.org/2000/svg">
<g filter="url(#filter0_d_186_102)">
<path d="M203.003 22C310.153 22 397.006 118.477 397 237.5C397.006 356.53 310.147 453.014 202.997 453C95.8409 453.007 8.99377 356.53 9 237.507C8.9813 118.477 95.8409 22 203.003 22Z" stroke="url(#paint0_diamond_186_102)" stroke-width="9" stroke-miterlimit="10"/>
<path d="M236.995 21.7871V452.218" stroke="#8C5042" stroke-width="9" stroke-miterlimit="10"/>
<path d="M464.171 237.001H9.81982" stroke="#8C5042" stroke-width="9" stroke-miterlimit="10"/>
<path d="M222.339 21.7871C222.339 21.7871 119.743 98.1539 119.743 237.003C119.743 375.851 222.339 452.218 222.339 452.218" stroke="#8C5042" stroke-width="9" stroke-miterlimit="10"/>
<path d="M61 98C61 98 94.9583 168 224 168C353.042 168 387 98 387 98" stroke="#8C5042" stroke-width="9" stroke-miterlimit="10"/>
<path d="M61 376C61 376 95.4792 306 226.5 306C357.521 306 392 376 392 376" stroke="#8C5042" stroke-width="9" stroke-miterlimit="10"/>
<path d="M532 202.188V267.401C532 287.129 515.631 320.558 482.398 320.558H395.099V365.494L395.595 430.707C395.595 430.707 389.147 474 342.521 474H293.415C268.614 474 232.405 458.108 232.405 416.461V320.558H129.729C96.001 316.2 95.9999 295.376 96 271.239V259.731V250.963V235.071V227.947V218.082V209.862V201.642C96 167.69 98.4801 146.841 129.729 146.841L230.917 147.935V46.0059C230.917 26.8524 248.278 0.522324 277.543 0.522324H304.824L332.105 0.521603C370.794 -4.95977 395.595 34.19 395.595 50.94V98.0687V146.841L483.39 147.387C513.151 147.387 532 185.438 532 202.188Z" fill="url(#paint1_radial_186_102)"/>
<path d="M352 195.139V205.182C352 208.22 349.184 213.369 343.468 213.369H328.451V220.289L328.536 230.333C328.536 230.333 327.427 237 319.406 237H310.959C306.693 237 300.464 234.552 300.464 228.139V213.369H282.802C277 212.698 277 209.49 277 205.773V204.001V202.65V200.203V199.106V197.587V196.321V195.055C277 189.826 277.427 186.615 282.802 186.615L300.208 186.783V171.085C300.208 168.135 303.195 164.08 308.229 164.08H312.922L317.614 164.08C324.27 163.236 328.536 169.266 328.536 171.845V179.103V186.615L343.638 186.699C348.758 186.699 352 192.559 352 195.139Z" fill="url(#paint2_radial_186_102)"/>
</g>
<path d="M168.5 58L171.755 68.3647H182.29L173.767 74.7705L177.023 85.1353L168.5 78.7295L159.977 85.1353L163.233 74.7705L154.71 68.3647H165.245L168.5 58Z" fill="#FFD6CD"/>
<path d="M145.5 103L148.755 113.365H159.29L150.767 119.771L154.023 130.135L145.5 123.729L136.977 130.135L140.233 119.771L131.71 113.365H142.245L145.5 103Z" fill="#FFD6CD"/>
<path d="M145.5 326L148.755 336.365H159.29L150.767 342.771L154.023 353.135L145.5 346.729L136.977 353.135L140.233 342.771L131.71 336.365H142.245L145.5 326Z" fill="#FFD6CD"/>
<path d="M168.5 371L171.755 381.365H182.29L173.767 387.771L177.023 398.135L168.5 391.729L159.977 398.135L163.233 387.771L154.71 381.365H165.245L168.5 371Z" fill="#FFD6CD"/>
<path d="M197.5 413L200.755 423.365H211.29L202.767 429.771L206.023 440.135L197.5 433.729L188.977 440.135L192.233 429.771L183.71 423.365H194.245L197.5 413Z" fill="#FFD6CD"/>
<path d="M197.5 22L200.755 32.3647H211.29L202.767 38.7705L206.023 49.1353L197.5 42.7295L188.977 49.1353L192.233 38.7705L183.71 32.3647H194.245L197.5 22Z" fill="#FFD6CD"/>
<path d="M254.592 259.784C255.824 259.784 256.832 259.971 257.616 260.344C258.419 260.699 259.128 261.119 259.744 261.604C260.117 261.884 260.397 261.921 260.584 261.716C260.789 261.492 260.929 260.979 261.004 260.176H261.648C261.611 260.923 261.583 261.837 261.564 262.92C261.545 263.984 261.536 265.403 261.536 267.176H260.892C260.817 266.28 260.696 265.487 260.528 264.796C260.36 264.087 260.108 263.461 259.772 262.92C259.436 262.379 258.951 261.903 258.316 261.492C257.924 261.231 257.504 261.025 257.056 260.876C256.627 260.727 256.179 260.652 255.712 260.652C254.648 260.652 253.771 260.951 253.08 261.548C252.389 262.127 251.848 262.892 251.456 263.844C251.083 264.777 250.821 265.804 250.672 266.924C250.523 268.025 250.448 269.099 250.448 270.144C250.448 271.189 250.523 272.272 250.672 273.392C250.821 274.493 251.083 275.52 251.456 276.472C251.848 277.405 252.389 278.171 253.08 278.768C253.771 279.347 254.648 279.636 255.712 279.636C256.179 279.636 256.627 279.561 257.056 279.412C257.504 279.244 257.924 279.039 258.316 278.796C259.249 278.217 259.875 277.443 260.192 276.472C260.528 275.501 260.761 274.251 260.892 272.72H261.536C261.536 274.549 261.545 276.033 261.564 277.172C261.583 278.292 261.611 279.235 261.648 280H261.004C260.929 279.197 260.799 278.693 260.612 278.488C260.444 278.283 260.155 278.311 259.744 278.572C259.053 279.057 258.316 279.487 257.532 279.86C256.767 280.215 255.777 280.392 254.564 280.392C252.455 280.392 250.607 279.991 249.02 279.188C247.433 278.385 246.201 277.228 245.324 275.716C244.447 274.204 244.008 272.384 244.008 270.256C244.008 268.165 244.456 266.336 245.352 264.768C246.267 263.2 247.517 261.977 249.104 261.1C250.691 260.223 252.52 259.784 254.592 259.784ZM271.134 265.076C272.59 265.076 273.85 265.328 274.914 265.832C275.997 266.317 276.837 267.12 277.434 268.24C278.032 269.36 278.33 270.863 278.33 272.748C278.33 274.633 278.032 276.136 277.434 277.256C276.837 278.376 275.997 279.179 274.914 279.664C273.85 280.149 272.59 280.392 271.134 280.392C269.697 280.392 268.437 280.149 267.354 279.664C266.272 279.179 265.432 278.376 264.834 277.256C264.237 276.136 263.938 274.633 263.938 272.748C263.938 270.863 264.237 269.36 264.834 268.24C265.432 267.12 266.272 266.317 267.354 265.832C268.437 265.328 269.697 265.076 271.134 265.076ZM271.134 265.636C270.574 265.636 270.108 266.196 269.734 267.316C269.361 268.436 269.174 270.247 269.174 272.748C269.174 275.249 269.361 277.06 269.734 278.18C270.108 279.281 270.574 279.832 271.134 279.832C271.694 279.832 272.161 279.281 272.534 278.18C272.908 277.06 273.094 275.249 273.094 272.748C273.094 270.247 272.908 268.436 272.534 267.316C272.161 266.196 271.694 265.636 271.134 265.636ZM286.042 258.104V277.396C286.042 278.18 286.154 278.712 286.378 278.992C286.62 279.272 287.031 279.412 287.61 279.412V280C287.236 279.981 286.676 279.963 285.93 279.944C285.183 279.907 284.418 279.888 283.634 279.888C282.85 279.888 282.056 279.907 281.254 279.944C280.451 279.963 279.844 279.981 279.434 280V279.412C280.012 279.412 280.414 279.272 280.638 278.992C280.88 278.712 281.002 278.18 281.002 277.396V261.464C281.002 260.624 280.89 260.008 280.666 259.616C280.442 259.205 280.031 259 279.434 259V258.412C280.031 258.468 280.61 258.496 281.17 258.496C282.103 258.496 282.971 258.468 283.774 258.412C284.595 258.337 285.351 258.235 286.042 258.104ZM292.485 280.196C291.608 280.196 290.889 280.028 290.329 279.692C289.769 279.356 289.359 278.917 289.097 278.376C288.855 277.835 288.733 277.265 288.733 276.668C288.733 275.884 288.911 275.249 289.265 274.764C289.62 274.26 290.077 273.859 290.637 273.56C291.216 273.243 291.823 272.981 292.457 272.776C293.092 272.571 293.689 272.375 294.249 272.188C294.828 271.983 295.295 271.749 295.649 271.488C296.004 271.208 296.181 270.853 296.181 270.424V267.932C296.181 267.633 296.125 267.307 296.013 266.952C295.92 266.597 295.733 266.289 295.453 266.028C295.173 265.767 294.753 265.636 294.193 265.636C293.895 265.636 293.605 265.683 293.325 265.776C293.064 265.851 292.831 265.963 292.625 266.112C293.279 266.355 293.755 266.7 294.053 267.148C294.352 267.577 294.501 268.053 294.501 268.576C294.501 269.323 294.24 269.911 293.717 270.34C293.195 270.769 292.579 270.984 291.869 270.984C291.123 270.984 290.544 270.751 290.133 270.284C289.723 269.817 289.517 269.239 289.517 268.548C289.517 267.969 289.657 267.484 289.937 267.092C290.236 266.681 290.675 266.308 291.253 265.972C291.813 265.655 292.485 265.431 293.269 265.3C294.053 265.151 294.875 265.076 295.733 265.076C296.648 265.076 297.497 265.169 298.281 265.356C299.065 265.524 299.737 265.897 300.297 266.476C300.689 266.887 300.941 267.4 301.053 268.016C301.165 268.632 301.221 269.425 301.221 270.396V277.9C301.221 278.367 301.249 278.684 301.305 278.852C301.38 279.02 301.501 279.104 301.669 279.104C301.819 279.104 301.959 279.057 302.089 278.964C302.239 278.871 302.379 278.777 302.509 278.684L302.789 279.16C302.379 279.515 301.865 279.776 301.249 279.944C300.652 280.112 300.017 280.196 299.345 280.196C298.543 280.196 297.917 280.103 297.469 279.916C297.04 279.711 296.732 279.449 296.545 279.132C296.377 278.796 296.284 278.441 296.265 278.068C295.873 278.684 295.379 279.197 294.781 279.608C294.203 280 293.437 280.196 292.485 280.196ZM295.145 277.956C295.351 277.956 295.528 277.928 295.677 277.872C295.845 277.797 296.013 277.667 296.181 277.48V271.572C296.051 271.815 295.873 272.057 295.649 272.3C295.444 272.524 295.229 272.757 295.005 273C294.781 273.243 294.567 273.504 294.361 273.784C294.175 274.064 294.016 274.391 293.885 274.764C293.773 275.119 293.717 275.539 293.717 276.024C293.717 276.733 293.848 277.237 294.109 277.536C294.389 277.816 294.735 277.956 295.145 277.956ZM314.052 265.076C315.434 265.076 316.591 265.655 317.524 266.812C318.458 267.951 318.924 269.715 318.924 272.104C318.924 274.213 318.626 275.875 318.028 277.088C317.431 278.301 316.638 279.16 315.648 279.664C314.659 280.149 313.576 280.392 312.4 280.392C311.766 280.392 311.187 280.355 310.664 280.28C310.142 280.205 309.638 280.019 309.152 279.72L309.46 279.272C309.703 279.459 309.974 279.599 310.272 279.692C310.571 279.785 310.851 279.832 311.112 279.832C311.99 279.832 312.634 279.244 313.044 278.068C313.474 276.892 313.688 275.119 313.688 272.748C313.688 271.087 313.604 269.808 313.436 268.912C313.268 268.016 313.044 267.4 312.764 267.064C312.484 266.709 312.167 266.532 311.812 266.532C311.29 266.532 310.823 266.719 310.412 267.092C310.002 267.465 309.796 267.951 309.796 268.548V267.176C310.226 266.467 310.804 265.944 311.532 265.608C312.26 265.253 313.1 265.076 314.052 265.076ZM309.796 258.104V280.056C309.18 279.795 308.546 279.655 307.892 279.636C307.258 279.617 306.679 279.683 306.156 279.832C305.634 279.981 305.232 280.187 304.952 280.448L304.56 280.168C304.654 279.907 304.71 279.655 304.728 279.412C304.747 279.151 304.756 278.889 304.756 278.628V261.464C304.756 260.624 304.644 260.008 304.42 259.616C304.196 259.205 303.786 259 303.188 259V258.412C303.786 258.468 304.364 258.496 304.924 258.496C305.858 258.496 306.726 258.468 307.528 258.412C308.35 258.337 309.106 258.235 309.796 258.104ZM327.873 265.076C329.329 265.076 330.589 265.328 331.653 265.832C332.735 266.317 333.575 267.12 334.173 268.24C334.77 269.36 335.069 270.863 335.069 272.748C335.069 274.633 334.77 276.136 334.173 277.256C333.575 278.376 332.735 279.179 331.653 279.664C330.589 280.149 329.329 280.392 327.873 280.392C326.435 280.392 325.175 280.149 324.093 279.664C323.01 279.179 322.17 278.376 321.573 277.256C320.975 276.136 320.677 274.633 320.677 272.748C320.677 270.863 320.975 269.36 321.573 268.24C322.17 267.12 323.01 266.317 324.093 265.832C325.175 265.328 326.435 265.076 327.873 265.076ZM327.873 265.636C327.313 265.636 326.846 266.196 326.473 267.316C326.099 268.436 325.913 270.247 325.913 272.748C325.913 275.249 326.099 277.06 326.473 278.18C326.846 279.281 327.313 279.832 327.873 279.832C328.433 279.832 328.899 279.281 329.273 278.18C329.646 277.06 329.833 275.249 329.833 272.748C329.833 270.247 329.646 268.436 329.273 267.316C328.899 266.196 328.433 265.636 327.873 265.636ZM346.749 265.076C347.421 265.076 347.944 265.225 348.317 265.524C348.691 265.804 348.952 266.168 349.101 266.616C349.251 267.045 349.325 267.475 349.325 267.904C349.325 268.744 349.083 269.416 348.597 269.92C348.131 270.405 347.515 270.648 346.749 270.648C345.928 270.648 345.303 270.461 344.873 270.088C344.463 269.715 344.257 269.229 344.257 268.632C344.257 267.997 344.388 267.475 344.649 267.064C344.929 266.653 345.275 266.308 345.685 266.028C345.349 266.028 345.051 266.093 344.789 266.224C344.565 266.317 344.351 266.448 344.145 266.616C343.94 266.784 343.763 266.98 343.613 267.204C343.464 267.409 343.343 267.643 343.249 267.904C343.175 268.165 343.137 268.436 343.137 268.716V277.116C343.137 278.012 343.324 278.619 343.697 278.936C344.071 279.253 344.687 279.412 345.545 279.412V280C345.116 279.981 344.472 279.963 343.613 279.944C342.773 279.907 341.905 279.888 341.009 279.888C340.169 279.888 339.32 279.907 338.461 279.944C337.603 279.963 336.959 279.981 336.529 280V279.412C337.108 279.412 337.509 279.272 337.733 278.992C337.976 278.712 338.097 278.18 338.097 277.396V268.52C338.097 267.68 337.985 267.064 337.761 266.672C337.537 266.261 337.127 266.056 336.529 266.056V265.468C337.127 265.524 337.705 265.552 338.265 265.552C339.199 265.552 340.067 265.524 340.869 265.468C341.691 265.393 342.447 265.291 343.137 265.16V267.176C343.38 266.691 343.679 266.299 344.033 266C344.388 265.683 344.789 265.449 345.237 265.3C345.704 265.151 346.208 265.076 346.749 265.076ZM353.79 280.196C352.913 280.196 352.194 280.028 351.634 279.692C351.074 279.356 350.663 278.917 350.402 278.376C350.159 277.835 350.038 277.265 350.038 276.668C350.038 275.884 350.215 275.249 350.57 274.764C350.925 274.26 351.382 273.859 351.942 273.56C352.521 273.243 353.127 272.981 353.762 272.776C354.397 272.571 354.994 272.375 355.554 272.188C356.133 271.983 356.599 271.749 356.954 271.488C357.309 271.208 357.486 270.853 357.486 270.424V267.932C357.486 267.633 357.43 267.307 357.318 266.952C357.225 266.597 357.038 266.289 356.758 266.028C356.478 265.767 356.058 265.636 355.498 265.636C355.199 265.636 354.91 265.683 354.63 265.776C354.369 265.851 354.135 265.963 353.93 266.112C354.583 266.355 355.059 266.7 355.358 267.148C355.657 267.577 355.806 268.053 355.806 268.576C355.806 269.323 355.545 269.911 355.022 270.34C354.499 270.769 353.883 270.984 353.174 270.984C352.427 270.984 351.849 270.751 351.438 270.284C351.027 269.817 350.822 269.239 350.822 268.548C350.822 267.969 350.962 267.484 351.242 267.092C351.541 266.681 351.979 266.308 352.558 265.972C353.118 265.655 353.79 265.431 354.574 265.3C355.358 265.151 356.179 265.076 357.038 265.076C357.953 265.076 358.802 265.169 359.586 265.356C360.37 265.524 361.042 265.897 361.602 266.476C361.994 266.887 362.246 267.4 362.358 268.016C362.47 268.632 362.526 269.425 362.526 270.396V277.9C362.526 278.367 362.554 278.684 362.61 278.852C362.685 279.02 362.806 279.104 362.974 279.104C363.123 279.104 363.263 279.057 363.394 278.964C363.543 278.871 363.683 278.777 363.814 278.684L364.094 279.16C363.683 279.515 363.17 279.776 362.554 279.944C361.957 280.112 361.322 280.196 360.65 280.196C359.847 280.196 359.222 280.103 358.774 279.916C358.345 279.711 358.037 279.449 357.85 279.132C357.682 278.796 357.589 278.441 357.57 278.068C357.178 278.684 356.683 279.197 356.086 279.608C355.507 280 354.742 280.196 353.79 280.196ZM356.45 277.956C356.655 277.956 356.833 277.928 356.982 277.872C357.15 277.797 357.318 277.667 357.486 277.48V271.572C357.355 271.815 357.178 272.057 356.954 272.3C356.749 272.524 356.534 272.757 356.31 273C356.086 273.243 355.871 273.504 355.666 273.784C355.479 274.064 355.321 274.391 355.19 274.764C355.078 275.119 355.022 275.539 355.022 276.024C355.022 276.733 355.153 277.237 355.414 277.536C355.694 277.816 356.039 277.956 356.45 277.956ZM372.725 263.032V269.64H379.221V270.48H372.725V277.06H371.717V270.48H365.193V269.64H371.717V263.032H372.725Z" fill="url(#paint3_linear_186_102)"/>
<defs>
<filter id="filter0_d_186_102" x="0.5" y="0" width="535.5" height="482" filterUnits="userSpaceOnUse" color-interpolation-filters="sRGB">
<feFlood flood-opacity="0" result="BackgroundImageFix"/>
<feColorMatrix in="SourceAlpha" type="matrix" values="0 0 0 0 0 0 0 0 0 0 0 0 0 0 0 0 0 0 127 0" result="hardAlpha"/>
<feOffset dy="4"/>
<feGaussianBlur stdDeviation="2"/>
<feComposite in2="hardAlpha" operator="out"/>
<feColorMatrix type="matrix" values="0 0 0 0 0 0 0 0 0 0 0 0 0 0 0 0 0 0 0.25 0"/>
<feBlend mode="normal" in2="BackgroundImageFix" result="effect1_dropShadow_186_102"/>
<feBlend mode="normal" in="SourceGraphic" in2="effect1_dropShadow_186_102" result="shape"/>
</filter>
<radialGradient id="paint0_diamond_186_102" cx="0" cy="0" r="1" gradientUnits="userSpaceOnUse" gradientTransform="translate(203 237.5) rotate(90) scale(215.5 194)">
<stop offset="0.7999" stop-color="#8C5042"/>
<stop offset="0.8" stop-color="#8C5042"/>
</radialGradient>
<radialGradient id="paint1_radial_186_102" cx="0" cy="0" r="1" gradientUnits="userSpaceOnUse" gradientTransform="translate(314 237) rotate(90) scale(237 218)">
<stop offset="0.2" stop-color="#D9A59A"/>
<stop offset="0.74" stop-color="#CB8980"/>
<stop offset="0.965" stop-color="#BF7069"/>
</radialGradient>
<radialGradient id="paint2_radial_186_102" cx="0" cy="0" r="1" gradientUnits="userSpaceOnUse" gradientTransform="translate(314.5 200.5) rotate(90) scale(36.5 37.5)">
<stop offset="0.065" stop-color="#D9A59A"/>
<stop offset="0.245" stop-color="#CB8980"/>
<stop offset="0.385" stop-color="#BF7069"/>
</radialGradient>
<linearGradient id="paint3_linear_186_102" x1="243" y1="268" x2="385" y2="268" gradientUnits="userSpaceOnUse">
<stop stop-color="#8C3F3F" stop-opacity="0.83"/>
<stop offset="1" stop-color="#984A4A" stop-opacity="0.5"/>
</linearGradient>
</defs>
</svg>
